0
SECTION
2
HEADER
9
$ACADVER
1
AC1009
0
ENDSEC
0
SECTION
2
TABLES
0
TABLE
2
LAYER
70
3
0
LAYER
2
0
70
0
62
7
6
CONTINUOUS
0
LAYER
2
OUTLINE
70
0
62
1
6
CONTINUOUS
0
LAYER
2
HOLES
70
0
62
3
6
CONTINUOUS
0
LAYER
2
TEXT
70
0
62
2
6
CONTINUOUS
0
ENDTAB
0
ENDSEC
0
SECTION
2
BLOCKS
0
BLOCK
8
0
2
BOLT
70
0
10
0
20
0
30
0
0
CIRCLE
8
0
10
0
20
0
30
0
40
4
0
LINE
8
0
10
-6
20
0
30
0
11
6
21
0
31
0
0
LINE
8
0
10
0
20
-6
30
0
11
0
21
6
31
0
0
ENDBLK
8
0
0
ENDSEC
0
SECTION
2
ENTITIES
0
LINE
8
OUTLINE
10
0
20
0
30
0
11
200
21
0
31
0
0
LINE
8
OUTLINE
10
200
20
0
30
0
11
200
21
100
31
0
0
LINE
8
OUTLINE
10
200
20
100
30
0
11
0
21
100
31
0
0
LINE
8
OUTLINE
10
0
20
100
30
0
11
0
21
0
31
0
0
ARC
8
OUTLINE
10
200
20
50
30
0
40
30
50
-90
51
90
0
CIRCLE
8
HOLES
10
100
20
50
30
0
40
25
0
INSERT
8
HOLES
2
BOLT
10
20
20
20
30
0
0
INSERT
8
HOLES
2
BOLT
10
180
20
20
30
0
0
INSERT
8
HOLES
2
BOLT
10
20
20
80
30
0
0
INSERT
8
HOLES
2
BOLT
10
180
20
80
30
0
0
TEXT
8
TEXT
10
10
20
110
30
0
40
8
1
SAMPLE PLATE 200x100
0
ENDSEC
0
EOF